<svg xmlns="http://www.w3.org/2000/svg" xmlns:xlink="http://www.w3.org/1999/xlink" version="1.1" width="256" height="256" viewBox="0 0 256 256" xml:space="preserve">
<g style="stroke: none; stroke-width: 0; stroke-dasharray: none; stroke-linecap: butt; stroke-linejoin: miter; stroke-miterlimit: 10; fill: none; fill-rule: nonzero; opacity: 1;" transform="translate(1.4065934065934016 1.4065934065934016) scale(2.81 2.81)">
	<path d="M 60.638 66.174 H 29.362 c -3.058 0 -5.536 -2.479 -5.536 -5.536 V 29.362 c 0 -3.058 2.479 -5.536 5.536 -5.536 h 31.276 c 3.058 0 5.536 2.479 5.536 5.536 v 31.276 C 66.174 63.696 63.696 66.174 60.638 66.174 z" style="stroke: none; stroke-width: 1; stroke-dasharray: none; stroke-linecap: butt; stroke-linejoin: miter; stroke-miterlimit: 10; fill: rgb(247,191,80); fill-rule: nonzero; opacity: 1;" transform=" matrix(1 0 0 1 0 0) " stroke-linecap="round"/>
	<path d="M 60.638 67.174 H 29.362 c -3.604 0 -6.536 -2.932 -6.536 -6.536 V 29.362 c 0 -3.604 2.932 -6.536 6.536 -6.536 h 31.276 c 3.604 0 6.536 2.932 6.536 6.536 v 31.276 C 67.174 64.242 64.242 67.174 60.638 67.174 z M 29.362 24.826 c -2.501 0 -4.536 2.035 -4.536 4.536 v 31.276 c 0 2.501 2.035 4.536 4.536 4.536 h 31.276 c 2.501 0 4.536 -2.035 4.536 -4.536 V 29.362 c 0 -2.501 -2.035 -4.536 -4.536 -4.536 H 29.362 z" style="stroke: none; stroke-width: 1; stroke-dasharray: none; stroke-linecap: butt; stroke-linejoin: miter; stroke-miterlimit: 10; fill: rgb(0,0,0); fill-rule: nonzero; opacity: 1;" transform=" matrix(1 0 0 1 0 0) " stroke-linecap="round"/>
	<path d="M 56.434 48.637 c 0 3.24 -2.578 5.871 -5.794 5.97 c -0.815 2.333 -3.029 4.01 -5.64 4.01 c -2.611 0 -4.825 -1.677 -5.64 -4.01 c -3.216 -0.099 -5.794 -2.73 -5.794 -5.97 c 0 -1.827 0.821 -3.459 2.112 -4.556 c -0.418 -0.816 -0.658 -1.738 -0.658 -2.717 c 0 -2.702 1.794 -4.984 4.255 -5.724 c 0.74 -2.461 3.022 -4.255 5.724 -4.255 c 2.702 0 4.984 1.794 5.724 4.255 c 2.461 0.74 4.255 3.022 4.255 5.724 c 0 0.98 -0.24 1.901 -0.658 2.717 C 55.612 45.177 56.434 46.81 56.434 48.637 z" style="stroke: none; stroke-width: 1; stroke-dasharray: none; stroke-linecap: butt; stroke-linejoin: miter; stroke-miterlimit: 10; fill: rgb(241,123,123); fill-rule: nonzero; opacity: 1;" transform=" matrix(1 0 0 1 0 0) " stroke-linecap="round"/>
	<path d="M 45 59.616 c -2.736 0 -5.205 -1.607 -6.334 -4.062 c -3.47 -0.43 -6.1 -3.351 -6.1 -6.918 c 0 -1.794 0.689 -3.503 1.913 -4.794 c -0.304 -0.792 -0.458 -1.622 -0.458 -2.479 c 0 -2.878 1.813 -5.483 4.468 -6.511 c 1.028 -2.655 3.633 -4.468 6.511 -4.468 s 5.482 1.813 6.51 4.468 c 2.656 1.027 4.47 3.633 4.47 6.511 c 0 0.856 -0.153 1.687 -0.458 2.479 c 1.224 1.291 1.912 3 1.912 4.794 c 0 3.567 -2.63 6.488 -6.1 6.918 C 50.204 58.009 47.736 59.616 45 59.616 z M 45 32.384 c -2.179 0 -4.139 1.457 -4.767 3.543 c -0.097 0.321 -0.348 0.573 -0.669 0.669 c -2.086 0.627 -3.543 2.587 -3.543 4.767 c 0 0.791 0.184 1.552 0.548 2.261 c 0.211 0.413 0.111 0.917 -0.243 1.218 c -1.119 0.95 -1.76 2.333 -1.76 3.794 c 0 2.704 2.119 4.888 4.825 4.97 c 0.414 0.013 0.777 0.279 0.913 0.67 c 0.698 1.998 2.585 3.34 4.696 3.34 s 3.998 -1.342 4.695 -3.34 c 0.137 -0.391 0.5 -0.657 0.914 -0.67 c 2.705 -0.082 4.824 -2.266 4.824 -4.97 c 0 -1.461 -0.642 -2.844 -1.76 -3.794 c -0.354 -0.301 -0.454 -0.805 -0.242 -1.218 c 0.363 -0.71 0.548 -1.471 0.548 -2.261 c 0 -2.179 -1.457 -4.139 -3.544 -4.767 c -0.321 -0.097 -0.573 -0.348 -0.67 -0.669 C 49.139 33.841 47.179 32.384 45 32.384 z" style="stroke: none; stroke-width: 1; stroke-dasharray: none; stroke-linecap: butt; stroke-linejoin: miter; stroke-miterlimit: 10; fill: rgb(0,0,0); fill-rule: nonzero; opacity: 1;" transform=" matrix(1 0 0 1 0 0) " stroke-linecap="round"/>
	<path d="M 40.492 39.673 c -0.208 0 -0.418 -0.065 -0.598 -0.199 c -0.55 -0.412 -2.224 -1.664 -1.585 -4.089 c 0.141 -0.534 0.689 -0.857 1.222 -0.712 c 0.534 0.14 0.853 0.688 0.713 1.221 c -0.218 0.829 0.004 1.346 0.849 1.979 c 0.442 0.331 0.532 0.958 0.202 1.4 C 41.098 39.534 40.797 39.673 40.492 39.673 z" style="stroke: none; stroke-width: 1; stroke-dasharray: none; stroke-linecap: butt; stroke-linejoin: miter; stroke-miterlimit: 10; fill: rgb(0,0,0); fill-rule: nonzero; opacity: 1;" transform=" matrix(1 0 0 1 0 0) " stroke-linecap="round"/>
	<path d="M 51.761 47.039 c -0.463 0 -0.95 -0.087 -1.459 -0.264 c -0.522 -0.181 -0.799 -0.75 -0.618 -1.272 s 0.75 -0.798 1.272 -0.618 c 0.826 0.287 1.699 0.336 2.466 -1.242 c 0.241 -0.497 0.839 -0.704 1.336 -0.462 c 0.497 0.241 0.704 0.84 0.463 1.336 C 54.415 46.177 53.214 47.039 51.761 47.039 z" style="stroke: none; stroke-width: 1; stroke-dasharray: none; stroke-linecap: butt; stroke-linejoin: miter; stroke-miterlimit: 10; fill: rgb(0,0,0); fill-rule: nonzero; opacity: 1;" transform=" matrix(1 0 0 1 0 0) " stroke-linecap="round"/>
	<path d="M 39.36 55.606 c -0.406 0 -0.788 -0.249 -0.938 -0.652 c -0.798 -2.149 -0.584 -3.988 0.636 -5.465 c 0.353 -0.425 0.982 -0.484 1.408 -0.135 c 0.426 0.353 0.486 0.982 0.134 1.408 c -0.474 0.574 -1.021 1.561 -0.303 3.496 c 0.192 0.518 -0.072 1.093 -0.589 1.285 C 39.593 55.587 39.476 55.606 39.36 55.606 z" style="stroke: none; stroke-width: 1; stroke-dasharray: none; stroke-linecap: butt; stroke-linejoin: miter; stroke-miterlimit: 10; fill: rgb(0,0,0); fill-rule: nonzero; opacity: 1;" transform=" matrix(1 0 0 1 0 0) " stroke-linecap="round"/>
	<path d="M 45 59.616 c -0.552 0 -1 -0.447 -1 -1 V 36.47 c 0 -0.552 0.448 -1 1 -1 s 1 0.448 1 1 v 22.146 C 46 59.169 45.552 59.616 45 59.616 z" style="stroke: none; stroke-width: 1; stroke-dasharray: none; stroke-linecap: butt; stroke-linejoin: miter; stroke-miterlimit: 10; fill: rgb(0,0,0); fill-rule: nonzero; opacity: 1;" transform=" matrix(1 0 0 1 0 0) " stroke-linecap="round"/>
	<path d="M 45 48.892 c -0.265 0 -0.53 -0.105 -0.727 -0.313 l -3.601 -3.811 c -0.379 -0.401 -0.361 -1.034 0.041 -1.414 c 0.4 -0.379 1.034 -0.363 1.414 0.041 l 3.601 3.811 c 0.379 0.401 0.361 1.034 -0.041 1.413 C 45.494 48.801 45.247 48.892 45 48.892 z" style="stroke: none; stroke-width: 1; stroke-dasharray: none; stroke-linecap: butt; stroke-linejoin: miter; stroke-miterlimit: 10; fill: rgb(0,0,0); fill-rule: nonzero; opacity: 1;" transform=" matrix(1 0 0 1 0 0) " stroke-linecap="round"/>
	<path d="M 45 43.039 c -0.277 0 -0.552 -0.114 -0.75 -0.338 c -0.366 -0.414 -0.326 -1.046 0.087 -1.412 l 3.197 -2.823 c 0.415 -0.365 1.046 -0.326 1.412 0.087 c 0.365 0.414 0.326 1.046 -0.088 1.412 l -3.197 2.823 C 45.472 42.956 45.235 43.039 45 43.039 z" style="stroke: none; stroke-width: 1; stroke-dasharray: none; stroke-linecap: butt; stroke-linejoin: miter; stroke-miterlimit: 10; fill: rgb(0,0,0); fill-rule: nonzero; opacity: 1;" transform=" matrix(1 0 0 1 0 0) " stroke-linecap="round"/>
	<circle cx="84.934" cy="45.004" r="4.064" style="stroke: none; stroke-width: 1; stroke-dasharray: none; stroke-linecap: butt; stroke-linejoin: miter; stroke-miterlimit: 10; fill: rgb(126,198,197); fill-rule: nonzero; opacity: 1;" transform="  matrix(1 0 0 1 0 0) "/>
	<path d="M 84.936 50.064 c -2.792 0 -5.063 -2.271 -5.063 -5.064 c 0 -2.792 2.271 -5.064 5.063 -5.064 C 87.729 39.936 90 42.208 90 45 C 90 47.793 87.729 50.064 84.936 50.064 z M 84.936 41.936 c -1.689 0 -3.063 1.375 -3.063 3.064 s 1.374 3.064 3.063 3.064 S 88 46.689 88 45 S 86.625 41.936 84.936 41.936 z" style="stroke: none; stroke-width: 1; stroke-dasharray: none; stroke-linecap: butt; stroke-linejoin: miter; stroke-miterlimit: 10; fill: rgb(0,0,0); fill-rule: nonzero; opacity: 1;" transform=" matrix(1 0 0 1 0 0) " stroke-linecap="round"/>
	<circle cx="5.064" cy="45.004" r="4.064" style="stroke: none; stroke-width: 1; stroke-dasharray: none; stroke-linecap: butt; stroke-linejoin: miter; stroke-miterlimit: 10; fill: rgb(126,198,197); fill-rule: nonzero; opacity: 1;" transform="  matrix(1 0 0 1 0 0) "/>
	<path d="M 5.064 50.064 C 2.271 50.064 0 47.793 0 45 c 0 -2.792 2.271 -5.064 5.064 -5.064 s 5.064 2.271 5.064 5.064 C 10.128 47.793 7.856 50.064 5.064 50.064 z M 5.064 41.936 C 3.375 41.936 2 43.311 2 45 s 1.375 3.064 3.064 3.064 c 1.69 0 3.064 -1.375 3.064 -3.064 S 6.754 41.936 5.064 41.936 z" style="stroke: none; stroke-width: 1; stroke-dasharray: none; stroke-linecap: butt; stroke-linejoin: miter; stroke-miterlimit: 10; fill: rgb(0,0,0); fill-rule: nonzero; opacity: 1;" transform=" matrix(1 0 0 1 0 0) " stroke-linecap="round"/>
	<path d="M 23.826 46 H 9.128 c -0.552 0 -1 -0.448 -1 -1 s 0.448 -1 1 -1 h 14.697 c 0.552 0 1 0.448 1 1 S 24.378 46 23.826 46 z" style="stroke: none; stroke-width: 1; stroke-dasharray: none; stroke-linecap: butt; stroke-linejoin: miter; stroke-miterlimit: 10; fill: rgb(0,0,0); fill-rule: nonzero; opacity: 1;" transform=" matrix(1 0 0 1 0 0) " stroke-linecap="round"/>
	<path d="M 80.872 46 H 66.174 c -0.553 0 -1 -0.448 -1 -1 s 0.447 -1 1 -1 h 14.698 c 0.553 0 1 0.448 1 1 S 81.425 46 80.872 46 z" style="stroke: none; stroke-width: 1; stroke-dasharray: none; stroke-linecap: butt; stroke-linejoin: miter; stroke-miterlimit: 10; fill: rgb(0,0,0); fill-rule: nonzero; opacity: 1;" transform=" matrix(1 0 0 1 0 0) " stroke-linecap="round"/>
	<path d="M 23.826 35.89 h -9.642 c -0.552 0 -1 -0.448 -1 -1 s 0.448 -1 1 -1 h 9.642 c 0.552 0 1 0.448 1 1 S 24.378 35.89 23.826 35.89 z" style="stroke: none; stroke-width: 1; stroke-dasharray: none; stroke-linecap: butt; stroke-linejoin: miter; stroke-miterlimit: 10; fill: rgb(0,0,0); fill-rule: nonzero; opacity: 1;" transform=" matrix(1 0 0 1 0 0) " stroke-linecap="round"/>
	<path d="M 75.816 35.89 h -9.643 c -0.553 0 -1 -0.448 -1 -1 s 0.447 -1 1 -1 h 9.643 c 0.553 0 1 0.448 1 1 S 76.369 35.89 75.816 35.89 z" style="stroke: none; stroke-width: 1; stroke-dasharray: none; stroke-linecap: butt; stroke-linejoin: miter; stroke-miterlimit: 10; fill: rgb(0,0,0); fill-rule: nonzero; opacity: 1;" transform=" matrix(1 0 0 1 0 0) " stroke-linecap="round"/>
	<path d="M 23.826 56.11 h -9.642 c -0.552 0 -1 -0.447 -1 -1 s 0.448 -1 1 -1 h 9.642 c 0.552 0 1 0.447 1 1 S 24.378 56.11 23.826 56.11 z" style="stroke: none; stroke-width: 1; stroke-dasharray: none; stroke-linecap: butt; stroke-linejoin: miter; stroke-miterlimit: 10; fill: rgb(0,0,0); fill-rule: nonzero; opacity: 1;" transform=" matrix(1 0 0 1 0 0) " stroke-linecap="round"/>
	<path d="M 75.816 56.11 h -9.643 c -0.553 0 -1 -0.447 -1 -1 s 0.447 -1 1 -1 h 9.643 c 0.553 0 1 0.447 1 1 S 76.369 56.11 75.816 56.11 z" style="stroke: none; stroke-width: 1; stroke-dasharray: none; stroke-linecap: butt; stroke-linejoin: miter; stroke-miterlimit: 10; fill: rgb(0,0,0); fill-rule: nonzero; opacity: 1;" transform=" matrix(1 0 0 1 0 0) " stroke-linecap="round"/>
	<circle cx="45.004" cy="5.064" r="4.064" style="stroke: none; stroke-width: 1; stroke-dasharray: none; stroke-linecap: butt; stroke-linejoin: miter; stroke-miterlimit: 10; fill: rgb(126,198,197); fill-rule: nonzero; opacity: 1;" transform="  matrix(1 0 0 1 0 0) "/>
	<path d="M 45 10.128 c -2.792 0 -5.064 -2.272 -5.064 -5.064 S 42.208 0 45 0 c 2.793 0 5.064 2.271 5.064 5.064 S 47.793 10.128 45 10.128 z M 45 2 c -1.689 0 -3.064 1.375 -3.064 3.064 c 0 1.69 1.375 3.064 3.064 3.064 s 3.064 -1.375 3.064 -3.064 C 48.064 3.375 46.689 2 45 2 z" style="stroke: none; stroke-width: 1; stroke-dasharray: none; stroke-linecap: butt; stroke-linejoin: miter; stroke-miterlimit: 10; fill: rgb(0,0,0); fill-rule: nonzero; opacity: 1;" transform=" matrix(1 0 0 1 0 0) " stroke-linecap="round"/>
	<circle cx="45.004" cy="84.934" r="4.064" style="stroke: none; stroke-width: 1; stroke-dasharray: none; stroke-linecap: butt; stroke-linejoin: miter; stroke-miterlimit: 10; fill: rgb(126,198,197); fill-rule: nonzero; opacity: 1;" transform="  matrix(1 0 0 1 0 0) "/>
	<path d="M 45 90 c -2.792 0 -5.064 -2.271 -5.064 -5.064 c 0 -2.792 2.271 -5.063 5.064 -5.063 c 2.793 0 5.064 2.271 5.064 5.063 C 50.064 87.729 47.793 90 45 90 z M 45 81.872 c -1.689 0 -3.064 1.374 -3.064 3.063 S 43.311 88 45 88 s 3.064 -1.375 3.064 -3.064 S 46.689 81.872 45 81.872 z" style="stroke: none; stroke-width: 1; stroke-dasharray: none; stroke-linecap: butt; stroke-linejoin: miter; stroke-miterlimit: 10; fill: rgb(0,0,0); fill-rule: nonzero; opacity: 1;" transform=" matrix(1 0 0 1 0 0) " stroke-linecap="round"/>
	<path d="M 45 81.872 c -0.552 0 -1 -0.447 -1 -1 V 66.174 c 0 -0.553 0.448 -1 1 -1 s 1 0.447 1 1 v 14.698 C 46 81.425 45.552 81.872 45 81.872 z" style="stroke: none; stroke-width: 1; stroke-dasharray: none; stroke-linecap: butt; stroke-linejoin: miter; stroke-miterlimit: 10; fill: rgb(0,0,0); fill-rule: nonzero; opacity: 1;" transform=" matrix(1 0 0 1 0 0) " stroke-linecap="round"/>
	<path d="M 45 24.826 c -0.552 0 -1 -0.448 -1 -1 V 9.128 c 0 -0.552 0.448 -1 1 -1 s 1 0.448 1 1 v 14.697 C 46 24.378 45.552 24.826 45 24.826 z" style="stroke: none; stroke-width: 1; stroke-dasharray: none; stroke-linecap: butt; stroke-linejoin: miter; stroke-miterlimit: 10; fill: rgb(0,0,0); fill-rule: nonzero; opacity: 1;" transform=" matrix(1 0 0 1 0 0) " stroke-linecap="round"/>
	<path d="M 34.89 76.816 c -0.552 0 -1 -0.447 -1 -1 v -9.643 c 0 -0.553 0.448 -1 1 -1 s 1 0.447 1 1 v 9.643 C 35.89 76.369 35.442 76.816 34.89 76.816 z" style="stroke: none; stroke-width: 1; stroke-dasharray: none; stroke-linecap: butt; stroke-linejoin: miter; stroke-miterlimit: 10; fill: rgb(0,0,0); fill-rule: nonzero; opacity: 1;" transform=" matrix(1 0 0 1 0 0) " stroke-linecap="round"/>
	<path d="M 34.89 24.826 c -0.552 0 -1 -0.448 -1 -1 v -9.642 c 0 -0.552 0.448 -1 1 -1 s 1 0.448 1 1 v 9.642 C 35.89 24.378 35.442 24.826 34.89 24.826 z" style="stroke: none; stroke-width: 1; stroke-dasharray: none; stroke-linecap: butt; stroke-linejoin: miter; stroke-miterlimit: 10; fill: rgb(0,0,0); fill-rule: nonzero; opacity: 1;" transform=" matrix(1 0 0 1 0 0) " stroke-linecap="round"/>
	<path d="M 55.11 76.816 c -0.553 0 -1 -0.447 -1 -1 v -9.643 c 0 -0.553 0.447 -1 1 -1 s 1 0.447 1 1 v 9.643 C 56.11 76.369 55.663 76.816 55.11 76.816 z" style="stroke: none; stroke-width: 1; stroke-dasharray: none; stroke-linecap: butt; stroke-linejoin: miter; stroke-miterlimit: 10; fill: rgb(0,0,0); fill-rule: nonzero; opacity: 1;" transform=" matrix(1 0 0 1 0 0) " stroke-linecap="round"/>
	<path d="M 55.11 24.826 c -0.553 0 -1 -0.448 -1 -1 v -9.642 c 0 -0.552 0.447 -1 1 -1 s 1 0.448 1 1 v 9.642 C 56.11 24.378 55.663 24.826 55.11 24.826 z" style="stroke: none; stroke-width: 1; stroke-dasharray: none; stroke-linecap: butt; stroke-linejoin: miter; stroke-miterlimit: 10; fill: rgb(0,0,0); fill-rule: nonzero; opacity: 1;" transform=" matrix(1 0 0 1 0 0) " stroke-linecap="round"/>
</g>
</svg>